<?xml version="1.0" standalone="no"?><!DOCTYPE svg PUBLIC "-//W3C//DTD SVG 1.1//EN" "http://www.w3.org/Graphics/SVG/1.1/DTD/svg11.dtd"><svg t="1508635085176" class="icon" style="" viewBox="0 0 1024 1024" version="1.1" xmlns="http://www.w3.org/2000/svg" p-id="2132" xmlns:xlink="http://www.w3.org/1999/xlink" width="64" height="64"><defs><style type="text/css"></style></defs><path d="M418.133333 428.373333c-51.2 0-93.866667-46.08-93.866667-102.4l0-90.453333c0-10.24 6.826667-17.066667 17.066667-17.066667s17.066667 6.826667 17.066667 17.066667l0 90.453333c0 37.546667 27.306667 68.266667 59.733333 68.266667s59.733333-30.72 59.733333-68.266667l0-85.333333c0-10.24 6.826667-17.066667 17.066667-17.066667s17.066667 6.826667 17.066667 17.066667l0 85.333333C512 382.293333 469.333333 428.373333 418.133333 428.373333z" p-id="2133"></path><path d="M418.133333 803.84c-10.24 0-17.066667-6.826667-17.066667-17.066667l0-546.133333c0-10.24 6.826667-17.066667 17.066667-17.066667s17.066667 6.826667 17.066667 17.066667l0 546.133333C435.2 797.013333 428.373333 803.84 418.133333 803.84z" p-id="2134"></path><path d="M580.266667 803.84c-10.24 0-17.066667-6.826667-17.066667-17.066667l0-546.133333c0-5.12 3.413333-10.24 6.826667-13.653333 5.12-3.413333 10.24-3.413333 15.36-1.706667 97.28 40.96 110.933333 278.186667 112.64 305.493333 0 5.12-1.706667 8.533333-5.12 11.946667-3.413333 3.413333-8.533333 5.12-11.946667 5.12l-85.333333 0 0 238.933333C597.333333 797.013333 590.506667 803.84 580.266667 803.84zM597.333333 513.706667l66.56 0c-5.12-66.56-23.893333-189.44-66.56-238.933333L597.333333 513.706667z" p-id="2135"></path></svg>